# File created by Blade
# Date/Time:  Thu Sep 25 19:04:16 2014
# Frame Rate: 120.000 fps
#------------------------------------------------------
:FULLY-SPECIFIED
:DEGREES
1995
root 7.216968 17.494118 -12.655810 69.550157 26.646371 19.395014
Spine 27.512228 36.012022 36.184821
Head -18.779278 49.288197 -18.121048
LeftShoulder -23.719304 23.691334 26.044843
LeftArm 1.448908 -20.947220 -38.731695
LeftForeArm -6.462685 0.000000 9.170681
LeftHand -40.177860 0.000000 25.841776
LeftHandThumb1 -26.253704 0.000000 33.147579
RightShoulder -2.243500 28.013850 -36.269891
RightArm 6.871337 -13.598857 68.167355
RightForeArm -63.309776 -0.000000 40.901194
RightHand -4.672352 -0.000000 -66.728504
RightHandThumb1 -24.326973 -0.000000 -32.862282
LeftUpLeg -139.597197 5.626305 -32.860284
LeftLeg 96.966563 -0.000000 -0.000000
LeftFoot -13.951797 -25.753863 -11.729378
LeftToeBase 4.161727 -0.000000 -0.000000
RightUpLeg -24.738961 -78.465685 -46.020585
RightLeg 0.213458 -0.000000 -0.000000
RightFoot 11.320927 -13.333018 20.545745
RightToeBase 10.802377 -0.000000 -0.000000
1996
root 7.212865 17.491394 -12.660401 69.502112 26.672624 19.290556
Spine 27.531474 35.854162 35.964079
Head -19.920580 47.465897 -19.043372
LeftShoulder -23.703142 23.677696 25.747577
LeftArm 1.418826 -21.069293 -38.788987
LeftForeArm -6.500561 -0.000000 9.120926
LeftHand -40.230115 -0.000000 25.898506
LeftHandThumb1 -26.253704 0.000000 33.147579
RightShoulder -2.102879 28.214922 -36.209038
RightArm 6.865564 -13.428122 68.312053
RightForeArm -63.370073 -0.000000 40.874445
RightHand -4.665983 0.000000 -66.744271
RightHandThumb1 -24.326973 -0.000000 -32.862282
LeftUpLeg -139.662680 5.682035 -32.789363
LeftLeg 96.978642 -0.000000 -0.000000
LeftFoot -13.945667 -25.735709 -11.773622
LeftToeBase 4.115847 -0.000000 -0.000000
RightUpLeg -25.171677 -78.496503 -45.486398
RightLeg 0.107623 -0.000000 -0.000000
RightFoot 11.400848 -13.270642 20.589194
RightToeBase 10.783204 -0.000000 -0.000000
1997
root 7.208611 17.489422 -12.664647 69.459529 26.730007 19.169090
Spine 27.563867 35.747622 35.767257
Head -21.402927 45.257279 -20.071955
LeftShoulder -23.743234 23.646577 25.464295
LeftArm 1.486969 -21.116269 -38.893016
LeftForeArm -6.640394 -0.000000 9.101231
LeftHand -40.148308 0.000000 25.857109
LeftHandThumb1 -26.253704 0.000000 33.147579
RightShoulder -2.061084 28.236846 -36.158354
RightArm 7.056150 -13.252600 68.406499
RightForeArm -63.386641 -0.000000 40.808660
RightHand -4.658929 -0.000000 -66.761704
RightHandThumb1 -24.326973 -0.000000 -32.862282
LeftUpLeg -139.741483 5.730651 -32.676844
LeftLeg 96.991253 -0.000000 -0.000000
LeftFoot -13.996935 -25.685429 -11.762883
LeftToeBase 4.192240 -0.000000 -0.000000
RightUpLeg -25.688114 -78.542748 -44.839207
RightLeg 0.021393 -0.000000 -0.000000
RightFoot 11.477569 -13.175277 20.629999
RightToeBase 10.694305 -0.000000 -0.000000
1998
root 7.205657 17.487545 -12.667662 69.431211 26.790858 19.027675
Spine 27.517817 35.642761 35.576317
Head -22.546402 42.802744 -20.831229
LeftShoulder -23.683646 23.646109 25.164275
LeftArm 1.507617 -21.183853 -38.947544
LeftForeArm -6.724005 -0.000000 9.044178
LeftHand -40.186127 0.000000 26.094493
LeftHandThumb1 -26.253704 0.000000 33.147579
RightShoulder -1.837497 28.321769 -36.073512
RightArm 7.066728 -13.067262 68.510483
RightForeArm -63.647024 -0.000000 40.755918
RightHand -4.837402 -0.000000 -66.866064
RightHandThumb1 -24.326973 -0.000000 -32.862282
LeftUpLeg -139.851314 5.780533 -32.556482
LeftLeg 97.009624 -0.000000 -0.000000
LeftFoot -13.997204 -25.660710 -11.800755
LeftToeBase 4.219670 -0.000000 -0.000000
RightUpLeg -26.433397 -78.630239 -43.949768
RightLeg -0.075084 -0.000000 0.000000
RightFoot 11.584220 -13.047349 20.647826
RightToeBase 10.674739 -0.000000 -0.000000
1999
root 7.202382 17.485967 -12.670673 69.380120 26.858246 18.880815
Spine 27.468399 35.577379 35.457732
Head -23.379388 40.221472 -21.291374
LeftShoulder -23.417151 23.744489 24.940747
LeftArm 1.468095 -21.537038 -39.106355
LeftForeArm -6.645444 -0.000000 9.060292
LeftHand -40.170375 -0.000000 25.945315
LeftHandThumb1 -26.253704 0.000000 33.147579
RightShoulder -1.603389 28.328873 -35.994875
RightArm 7.128735 -12.838822 68.604599
RightForeArm -63.349388 -0.000000 40.708732
RightHand -4.840843 0.000000 -66.886073
RightHandThumb1 -24.326973 -0.000000 -32.862282
LeftUpLeg -139.944845 5.847789 -32.413669
LeftLeg 97.030820 -0.000000 -0.000000
LeftFoot -14.025196 -25.612681 -11.754448
LeftToeBase 4.170004 -0.000000 -0.000000
RightUpLeg -27.070916 -78.671275 -43.166826
RightLeg -0.156188 -0.000000 0.000000
RightFoot 11.686078 -12.948729 20.690702
RightToeBase 10.589419 -0.000000 -0.000000
